# xmcd CD database file
# Copyright (C) 1993-1998 Ti Kan
# 
# Track frame offsets:
#     150
#     13072
#     26565
#     41127
#     57112
#     72265
#     90985
#     108860
#     125022
#     138102
#     157430
#     174360
#     192120
# 
# Disc length: 2769 seconds
# 
# Revision: 1
# Processed by: cddbd v1.4b41PL1 Copyright (c) Steve Scherf et al.
# Submitted via: DiscPlay 4.0.4
# 
DISCID=ab0acf0d
DTITLE=Johnny Ferreira and The Swing Machine - Crazy 'Bout a Saxophone
DYEAR=1900
DGENRE=
TTITLE0=Rock On
TTITLE1=Yes Indeed
TTITLE2=Walk Right In
TTITLE3=Crazy 'Bout a Saxophone
TTITLE4=Mexico
TTITLE5=My Baby Just Cares For Me
TTITLE6=Burnin' Butter
TTITLE7=A Pretty Girl
TTITLE8=Rock 'n' Roll Oh Yeah
TTITLE9=Main Squeeze
TTITLE10=No! I Ain't Gonna Let You Go
TTITLE11=Blue Bop
TTITLE12=Wine, Women, and Song
EXTD=
EXTT0=
EXTT1=
EXTT2=
EXTT3=
EXTT4=
EXTT5=
EXTT6=
EXTT7=
EXTT8=
EXTT9=
EXTT10=
EXTT11=
EXTT12=
PLAYORDER=
